HIERARCHY
ROOT joint_Root
{
	OFFSET 0.0 0.0 0.0
	CHANNELS 6 Xposition Yposition Zposition Zrotation Xrotation Yrotation 
	JOINT Hips
	{
		OFFSET -0.726466 93.3139 -2.00062
		CHANNELS 6 Xposition Yposition Zposition Zrotation Xrotation Yrotation 
		JOINT Spine
		{
			OFFSET 15.7357 0.0 0.0
			CHANNELS 6 Xposition Yposition Zposition Zrotation Xrotation Yrotation 
			JOINT Chest
			{
				OFFSET 8.98455 -0.406207 0.0
				CHANNELS 6 Xposition Yposition Zposition Zrotation Xrotation Yrotation 
				JOINT Neck
				{
					OFFSET 16.3773 0.0 0.0
					CHANNELS 6 Xposition Yposition Zposition Zrotation Xrotation Yrotation 
					JOINT Head
					{
						OFFSET 6.45672 0.0 0.0
						CHANNELS 6 Xposition Yposition Zposition Zrotation Xrotation Yrotation 
						End Site
						{
							OFFSET 0.0 0.0 0.0
						}
					}
				}
				JOINT Shoulder_L
				{
					OFFSET 12.9942 -0.242716 4.98039
					CHANNELS 6 Xposition Yposition Zposition Zrotation Xrotation Yrotation 
					JOINT UpperArm_L
					{
						OFFSET 5.34809 0.0 0.0
						CHANNELS 6 Xposition Yposition Zposition Zrotation Xrotation Yrotation 
						JOINT LowerArm_L
						{
							OFFSET 24.3286 1.87007e-05 0.0
							CHANNELS 6 Xposition Yposition Zposition Zrotation Xrotation Yrotation 
							JOINT Hand_L
							{
								OFFSET 22.2916 0.0 0.0
								CHANNELS 6 Xposition Yposition Zposition Zrotation Xrotation Yrotation 
								End Site
								{
									OFFSET 0.0 0.0 0.0
								}
							}
						}
					}
				}
				JOINT Shoulder_R
				{
					OFFSET 12.9945 -0.242716 -4.98039
					CHANNELS 6 Xposition Yposition Zposition Zrotation Xrotation Yrotation 
					JOINT UpperArm_R
					{
						OFFSET -5.34813 0.0 0.0
						CHANNELS 6 Xposition Yposition Zposition Zrotation Xrotation Yrotation 
						JOINT LowerArm_R
						{
							OFFSET -24.3289 0.000322201 0.0
							CHANNELS 6 Xposition Yposition Zposition Zrotation Xrotation Yrotation 
							JOINT Hand_R
							{
								OFFSET -22.2915 -0.000108084 0.0
								CHANNELS 6 Xposition Yposition Zposition Zrotation Xrotation Yrotation 
								End Site
								{
									OFFSET 0.0 0.0 0.0
								}
							}
						}
					}
				}
			}
		}
		JOINT UpperLeg_L
		{
			OFFSET -2.19248 -6.46944 0.0
			CHANNELS 6 Xposition Yposition Zposition Zrotation Xrotation Yrotation 
			JOINT LowerLeg_L
			{
				OFFSET 39.0811 0.0 -1.23785e-05
				CHANNELS 6 Xposition Yposition Zposition Zrotation Xrotation Yrotation 
				JOINT Foot_L
				{
					OFFSET 40.9854 0.0 -1.26872e-05
					CHANNELS 6 Xposition Yposition Zposition Zrotation Xrotation Yrotation 
					JOINT Toes_L
					{
						OFFSET 11.7543 0.0 0.0
						CHANNELS 6 Xposition Yposition Zposition Zrotation Xrotation Yrotation 
						End Site
						{
							OFFSET 0.0 0.0 0.0
						}
					}
				}
			}
		}
		JOINT UpperLeg_R
		{
			OFFSET -2.19251 6.46944 0.0
			CHANNELS 6 Xposition Yposition Zposition Zrotation Xrotation Yrotation 
			JOINT LowerLeg_R
			{
				OFFSET -39.0811 -0.00228153 -0.0401928
				CHANNELS 6 Xposition Yposition Zposition Zrotation Xrotation Yrotation 
				JOINT Foot_R
				{
					OFFSET -40.9854 0.0 0.0
					CHANNELS 6 Xposition Yposition Zposition Zrotation Xrotation Yrotation 
					JOINT Toes_R
					{
						OFFSET -11.7543 0.0 0.0
						CHANNELS 6 Xposition Yposition Zposition Zrotation Xrotation Yrotation 
						End Site
						{
							OFFSET 0.0 0.0 0.0
						}
					}
				}
			}
		}
	}
}
MOTION
Frames:	9
Frame Time:	0.0333333
0.000000 0.000000 0.000000 0.000000 0.000000 -0.000000 146.239000 91.052300 -113.968000 87.474600 6.603790 3.786050 15.735700 0.000005 -0.000001 76.827200 82.286000 -76.222200 8.984550 -0.406207 -0.000000 7.285280 -3.505600 1.432250 16.377300 -0.000001 -0.000001 3.181660 -2.993390 -1.241860 6.456720 -0.000001 -0.000000 3.302840 -2.665140 -0.885672 12.994200 -0.242716 4.980390 -89.462300 -1.682430 -72.273500 5.348090 -0.000007 -0.000001 -54.393300 35.945800 -39.032200 24.328600 0.000019 0.000005 -1.566250 -1.717900 -42.372400 22.291600 -0.000001 0.000005 11.329100 5.548530 -8.636340 12.994500 -0.242716 -4.980390 88.864400 3.368730 -71.359500 -5.348130 -0.000001 -0.000004 -74.958700 26.985100 -2.809240 -24.328900 0.000322 -0.000009 1.843600 14.350300 -7.403610 -22.291500 -0.000108 -0.000004 9.173790 5.318920 -0.464422 -2.192480 -6.469440 -0.000000 -179.109000 0.033512 2.673080 39.081100 -0.000007 -0.000012 0.007483 -0.016338 24.606100 40.985400 -0.000006 -0.000013 7.147340 2.830270 -73.914600 11.754300 -0.000000 0.000003 -0.321511 -0.384281 -15.615400 -2.192510 6.469440 -0.000001 -177.943000 9.931410 155.606000 -39.081100 -0.002282 -0.040193 0.015387 -0.016751 35.838700 -40.985400 0.000008 0.000006 1.155400 -5.408610 -54.032600 -11.754300 -0.000006 -0.000006 -0.023347 -0.185167 -24.145200
0.000000 0.000000 0.000000 0.000000 0.000000 -0.000000 146.200000 90.712800 -111.402000 87.675000 7.029210 3.385940 15.735700 0.000005 -0.000001 74.599000 82.356800 -73.992500 8.984550 -0.406207 -0.000000 7.006640 -4.049820 1.460040 16.377300 -0.000001 -0.000001 2.932420 -3.039380 -1.272050 6.456720 -0.000001 -0.000000 3.052420 -2.346210 -0.838851 12.994200 -0.242716 4.980390 -89.394500 -1.941210 -72.672400 5.348090 -0.000007 -0.000001 -53.201900 32.669200 -42.339600 24.328600 0.000019 0.000005 -1.151670 -1.191250 -44.040600 22.291600 -0.000001 0.000005 12.233000 5.555130 -8.950260 12.994500 -0.242716 -4.980390 88.794400 3.514010 -71.050400 -5.348130 -0.000001 -0.000004 -74.419800 27.046800 -2.061250 -24.328900 0.000322 -0.000009 1.939840 14.287400 -7.818640 -22.291500 -0.000108 -0.000004 9.644320 5.318690 -0.458138 -2.192480 -6.469440 -0.000000 -178.969000 -0.156111 4.357410 39.081100 -0.000007 -0.000012 0.009196 -0.020675 23.979700 40.985400 -0.000006 -0.000013 7.171520 3.152540 -74.681600 11.754300 -0.000000 0.000003 -0.847695 -1.061340 -16.031200 -2.192510 6.469440 -0.000001 -176.729000 11.699700 154.854000 -39.081100 -0.002282 -0.040193 0.006444 -0.006229 26.723100 -40.985400 0.000008 0.000006 -1.165770 -0.938525 -51.025500 -11.754300 -0.000006 -0.000006 -0.024005 -0.188543 -24.284700
0.000000 0.000000 0.000000 0.000000 0.000000 -0.000000 146.174000 90.219600 -108.360000 87.963700 7.656640 3.353990 15.735700 0.000005 -0.000001 72.229600 82.312100 -71.575300 8.984550 -0.406207 -0.000000 6.920840 -4.681830 1.591180 16.377300 -0.000001 -0.000001 2.842060 -3.125410 -1.395120 6.456720 -0.000001 -0.000000 2.829950 -2.024700 -0.975278 12.994200 -0.242716 4.980390 -89.389000 -2.012580 -73.108100 5.348090 -0.000007 -0.000001 -52.859000 29.729100 -44.549600 24.328600 0.000019 0.000005 -1.448580 -1.470840 -44.573300 22.291600 -0.000001 0.000005 13.412300 5.563450 -9.355380 12.994500 -0.242716 -4.980390 88.734900 3.638900 -70.814300 -5.348130 -0.000001 -0.000004 -73.843000 26.272800 -1.908620 -24.328900 0.000322 -0.000009 1.923600 14.141700 -7.831310 -22.291500 -0.000108 -0.000004 9.850630 5.323230 -0.588941 -2.192480 -6.469440 -0.000000 -178.607000 -0.820288 6.384930 39.081100 -0.000007 -0.000012 0.010611 -0.023839 23.993800 40.985400 -0.000006 -0.000013 7.234100 4.325240 -75.462800 11.754300 -0.000000 0.000003 -1.072970 -1.331190 -16.980600 -2.192510 6.469440 -0.000001 -175.716000 13.447300 154.583000 -39.081100 -0.002282 -0.040193 0.000433 0.007630 20.725400 -40.985400 0.000008 0.000006 -2.908360 0.693765 -49.884900 -11.754300 -0.000006 -0.000006 -0.024843 -0.192773 -24.459500
0.000000 0.000000 0.000000 0.000000 0.000000 -0.000000 146.095000 89.680600 -104.765000 88.171100 8.692860 3.573410 15.735700 0.000005 -0.000001 69.307900 82.261800 -68.523400 8.984550 -0.406207 -0.000000 6.773450 -5.457680 1.891420 16.377300 -0.000001 -0.000001 3.053090 -3.232520 -1.554720 6.456720 -0.000001 -0.000000 2.934090 -1.910380 -1.200480 12.994200 -0.242716 4.980390 -89.414100 -1.959990 -73.352500 5.348090 -0.000007 -0.000001 -53.054000 27.700700 -45.924900 24.328600 0.000019 0.000005 -1.998890 -2.079550 -43.886700 22.291600 -0.000001 0.000005 14.526400 5.568940 -9.634510 12.994500 -0.242716 -4.980390 88.631000 3.882130 -70.558800 -5.348130 -0.000001 -0.000004 -73.184000 25.342800 -2.146000 -24.328900 0.000322 -0.000009 1.778590 13.857400 -7.391340 -22.291500 -0.000108 -0.000004 10.025600 5.320540 -0.511232 -2.192480 -6.469440 -0.000000 -177.911000 -1.240720 8.554210 39.081100 -0.000007 -0.000012 0.010960 -0.023756 24.765400 40.985400 -0.000006 -0.000013 7.319980 5.758930 -75.940500 11.754300 -0.000000 0.000003 -0.351790 -0.440218 -17.950600 -2.192510 6.469440 -0.000001 -174.938000 14.656300 154.447000 -39.081100 -0.002282 -0.040193 -0.000393 0.010673 19.195900 -40.985400 0.000008 0.000006 -1.674680 -1.309350 -51.722000 -11.754300 -0.000006 -0.000006 -0.024978 -0.193449 -24.487400
0.000000 0.000000 0.000000 0.000000 0.000000 -0.000000 145.855000 89.219500 -100.704000 87.470100 9.701920 3.573790 15.735700 0.000005 -0.000001 66.633700 82.495100 -65.356500 8.984550 -0.406207 -0.000000 6.106200 -5.955380 2.871210 16.377300 -0.000001 -0.000001 3.456160 -3.582760 -1.682810 6.456720 -0.000001 -0.000000 3.577180 -1.992870 -1.654690 12.994200 -0.242716 4.980390 -89.481200 -1.762800 -73.596500 5.348090 -0.000007 -0.000001 -53.911100 26.774700 -45.936300 24.328600 0.000019 0.000005 -2.299100 -2.511940 -42.492300 22.291600 -0.000001 0.000005 15.190500 5.568100 -9.591880 12.994500 -0.242716 -4.980390 88.431300 4.314190 -69.996600 -5.348130 -0.000001 -0.000004 -72.222700 24.870300 -2.690020 -24.328900 0.000322 -0.000009 1.628070 14.024900 -6.693550 -22.291500 -0.000108 -0.000004 10.393700 5.314830 -0.347724 -2.192480 -6.469440 -0.000000 -176.084000 -1.249550 9.966110 39.081100 -0.000007 -0.000012 0.008524 -0.017029 26.590400 40.985400 -0.000006 -0.000013 7.067370 7.273310 -75.757600 11.754300 -0.000000 0.000003 -0.010539 -0.107635 -20.962900 -2.192510 6.469440 -0.000001 -173.197000 14.912100 153.305000 -39.081100 -0.002282 -0.040193 0.009254 -0.014198 22.696000 -40.985400 0.000008 0.000006 5.362100 -3.469670 -50.717700 -11.754300 -0.000006 -0.000006 -0.025611 -0.196591 -24.617300
0.000000 0.000000 0.000000 0.000000 0.000000 -0.000000 145.563000 88.856600 -96.121900 86.443500 10.410200 3.729830 15.735700 0.000005 -0.000001 64.395400 82.877400 -62.491000 8.984550 -0.406207 -0.000000 5.210200 -6.185700 4.089130 16.377300 -0.000001 -0.000001 3.883420 -3.996200 -1.777810 6.456720 -0.000001 -0.000000 4.346980 -2.240790 -2.375620 12.994200 -0.242716 4.980390 -89.526700 -1.614840 -73.660700 5.348090 -0.000007 -0.000001 -55.527400 27.015600 -44.228200 24.328600 0.000019 0.000005 -1.943800 -2.223340 -41.179900 22.291600 -0.000001 0.000005 15.417600 5.560110 -9.193130 12.994500 -0.242716 -4.980390 88.232700 4.686010 -69.310100 -5.348130 -0.000001 -0.000004 -71.307100 24.535300 -3.217110 -24.328900 0.000322 -0.000009 1.552810 14.475700 -6.193430 -22.291500 -0.000108 -0.000004 10.884200 5.311610 -0.255776 -2.192480 -6.469440 -0.000000 -173.856000 -1.002030 10.793300 39.081100 -0.000007 -0.000012 0.004602 -0.008021 29.843200 40.985400 -0.000006 -0.000013 6.172460 8.892300 -73.756800 11.754300 -0.000000 0.000003 -0.038620 -0.254576 -27.030500 -2.192510 6.469440 -0.000001 -172.474000 12.882800 152.832000 -39.081100 -0.002282 -0.040193 0.022831 -0.036260 28.301900 -40.985400 0.000008 0.000006 7.640670 -4.110250 -49.446100 -11.754300 -0.000006 -0.000006 -0.023437 -0.185630 -24.164400
0.000000 0.000000 0.000000 0.000000 0.000000 -0.000000 145.333000 88.756500 -91.278400 85.321100 10.177500 4.835610 15.735700 0.000005 -0.000001 64.448600 83.027500 -61.907000 8.984550 -0.406207 -0.000000 4.977220 -6.064790 5.345090 16.377300 -0.000001 -0.000001 4.088860 -4.095290 -1.758210 6.456720 -0.000001 -0.000000 4.979680 -2.538400 -3.448510 12.994200 -0.242716 4.980390 -89.619500 -1.280480 -73.447100 5.348090 -0.000007 -0.000001 -57.528300 27.895400 -40.868000 24.328600 0.000019 0.000005 -1.628480 -1.925980 -40.228100 22.291600 -0.000001 0.000005 15.242300 5.556240 -9.004240 12.994500 -0.242716 -4.980390 88.076900 5.020270 -69.007900 -5.348130 -0.000001 -0.000004 -70.426700 24.352600 -4.168930 -24.328900 0.000322 -0.000009 1.498270 14.397600 -6.008950 -22.291500 -0.000108 -0.000004 11.071300 5.304460 -0.053094 -2.192480 -6.469440 -0.000000 -172.039000 -0.728929 10.958400 39.081100 -0.000007 -0.000012 0.008362 -0.011752 35.429000 40.985400 -0.000006 -0.000013 5.235720 9.195760 -67.810400 11.754300 -0.000000 0.000003 -0.123822 -0.500199 -37.585500 -2.192510 6.469440 -0.000001 -171.704000 10.380600 154.439000 -39.081100 -0.002282 -0.040193 0.046623 -0.065877 33.333600 -40.985400 0.000008 0.000006 9.118240 -6.329750 -52.776500 -11.754300 -0.000006 -0.000006 -0.015991 -0.143973 -22.448800
0.000000 0.000000 0.000000 0.000000 0.000000 -0.000000 145.180000 88.907700 -86.640300 84.994900 9.217640 6.463280 15.735700 0.000005 -0.000001 66.488500 82.897300 -63.651200 8.984550 -0.406207 -0.000000 5.429370 -5.712130 5.943030 16.377300 -0.000001 -0.000001 4.143750 -4.036780 -1.637550 6.456720 -0.000001 -0.000000 5.296110 -2.654360 -4.252740 12.994200 -0.242716 4.980390 -89.624600 -1.256420 -73.362100 5.348090 -0.000007 -0.000001 -60.000700 28.992300 -36.291500 24.328600 0.000019 0.000005 -1.739280 -2.122420 -39.351100 22.291600 -0.000001 0.000005 14.817700 5.557850 -9.082280 12.994500 -0.242716 -4.980390 88.053300 5.117200 -69.139200 -5.348130 -0.000001 -0.000004 -70.011700 24.515600 -6.020510 -24.328900 0.000322 -0.000009 1.467620 14.138700 -5.991830 -22.291500 -0.000108 -0.000004 10.818200 5.305160 -0.072710 -2.192480 -6.469440 -0.000000 -170.758000 -2.126270 8.954830 39.081100 -0.000007 -0.000012 0.022500 -0.023198 44.121900 40.985400 -0.000006 -0.000013 4.479280 9.405740 -57.456600 11.754300 -0.000000 0.000003 -0.179395 -0.609742 -42.567200 -2.192510 6.469440 -0.000001 -171.450000 9.486320 158.078000 -39.081100 -0.002282 -0.040193 0.063909 -0.083257 36.059100 -40.985400 0.000008 0.000006 9.044250 -7.149620 -57.049400 -11.754300 -0.000006 -0.000006 -0.013060 -0.125237 -21.680000
0.000000 0.000000 0.000000 0.000000 0.000000 -0.000000 144.984000 89.204000 -82.667200 84.996100 8.566410 7.383500 15.735700 0.000005 -0.000001 68.376000 82.837700 -65.451700 8.984550 -0.406207 -0.000000 5.712440 -5.318340 6.110970 16.377300 -0.000001 -0.000001 3.993580 -4.245670 -1.332310 6.456720 -0.000001 -0.000000 5.321460 -2.869030 -4.281100 12.994200 -0.242716 4.980390 -89.591500 -1.369400 -73.388500 5.348090 -0.000007 -0.000001 -61.886500 30.859500 -32.282600 24.328600 0.000019 0.000005 -2.339280 -3.065730 -37.376600 22.291600 -0.000001 0.000005 14.212200 5.559710 -9.172720 12.994500 -0.242716 -4.980390 88.004500 5.252360 -69.162200 -5.348130 -0.000001 -0.000004 -69.703500 25.288800 -8.410060 -24.328900 0.000322 -0.000009 1.594650 13.482700 -6.814080 -22.291500 -0.000108 -0.000004 10.422800 5.308400 -0.164749 -2.192480 -6.469440 -0.000000 -170.444000 -2.378670 3.708240 39.081100 -0.000007 -0.000012 0.034746 -0.024874 54.397500 40.985400 -0.000006 -0.000013 1.564280 6.993580 -45.709300 11.754300 -0.000000 0.000003 -0.061760 -0.337465 -30.519900 -2.192510 6.469440 -0.000001 -171.417000 11.250100 161.743000 -39.081100 -0.002282 -0.040193 0.076506 -0.098299 36.681000 -40.985400 0.000008 0.000006 9.293310 -5.567890 -60.773400 -11.754300 -0.000006 -0.000006 -0.012115 -0.118812 -21.416700
